<svg width="97" height="54" viewBox="0 0 97 54" fill="none" xmlns="http://www.w3.org/2000/svg">
<path d="M10.26 21.104C10.26 22.328 10.068 23.24 9.684 23.84C9.3 24.44 8.688 24.872 7.848 25.136C8.688 25.4 9.3 25.832 9.684 26.432C10.068 27.032 10.26 27.944 10.26 29.168V34.928C10.26 35.792 10.476 36.452 10.908 36.908C11.364 37.364 12.024 37.592 12.888 37.592H13.536V41.984H11.448C9.216 41.984 7.524 41.432 6.372 40.328C5.22 39.224 4.644 37.628 4.644 35.54V29.024C4.644 28.472 4.5 28.052 4.212 27.764C3.948 27.476 3.564 27.332 3.06 27.332H1.872V22.94H3.06C3.564 22.94 3.948 22.796 4.212 22.508C4.5 22.22 4.644 21.8 4.644 21.248V14.732C4.644 12.644 5.22 11.048 6.372 9.944C7.524 8.84 9.216 8.288 11.448 8.288H13.536V12.68H12.888C12.024 12.68 11.364 12.908 10.908 13.364C10.476 13.82 10.26 14.48 10.26 15.344V21.104Z" fill="#7869D7"/>
<path fill-rule="evenodd" clip-rule="evenodd" d="M20.117 22.1041C20.117 23.3281 19.925 24.2401 19.541 24.8401C19.217 25.3464 18.7306 25.733 18.0819 26.0001H11.729V23.9401H12.917C13.421 23.9401 13.805 23.7961 14.069 23.5081C14.357 23.2201 14.501 22.8001 14.501 22.2481V15.7321C14.501 13.6441 15.077 12.0481 16.229 10.9441C17.381 9.84009 19.073 9.28809 21.305 9.28809H23.393V13.6801H22.745C21.881 13.6801 21.221 13.9081 20.765 14.3641C20.333 14.8201 20.117 15.4801 20.117 16.3441V22.1041Z" fill="#7869D7"/>
<path d="M32.816 17.696C33.648 17.696 34.312 17.776 34.808 17.936C35.304 18.096 35.808 18.328 36.32 18.632C36.496 18.728 36.648 18.808 36.776 18.872C36.92 18.936 37.04 18.968 37.136 18.968C37.28 18.968 37.392 18.888 37.472 18.728C37.552 18.552 37.616 18.28 37.664 17.912H38.216C38.136 18.984 38.096 20.808 38.096 23.384H37.544C37.48 22.52 37.28 21.696 36.944 20.912C36.624 20.128 36.16 19.496 35.552 19.016C34.96 18.52 34.264 18.272 33.464 18.272C32.68 18.272 32.04 18.496 31.544 18.944C31.064 19.376 30.824 19.968 30.824 20.72C30.824 21.28 30.944 21.768 31.184 22.184C31.424 22.6 31.76 22.984 32.192 23.336C32.624 23.672 33.288 24.136 34.184 24.728L34.952 25.256C35.896 25.88 36.64 26.424 37.184 26.888C37.728 27.352 38.168 27.896 38.504 28.52C38.856 29.128 39.032 29.84 39.032 30.656C39.032 31.68 38.768 32.544 38.24 33.248C37.712 33.936 36.992 34.456 36.08 34.808C35.184 35.16 34.184 35.336 33.08 35.336C32.184 35.336 31.44 35.256 30.848 35.096C30.256 34.936 29.712 34.72 29.216 34.448C28.864 34.224 28.592 34.112 28.4 34.112C28.256 34.112 28.144 34.2 28.064 34.376C27.984 34.536 27.92 34.8 27.872 35.168H27.32C27.384 34.16 27.416 32 27.416 28.688H27.968C28.08 30.48 28.48 31.936 29.168 33.056C29.856 34.16 30.912 34.712 32.336 34.712C33.2 34.712 33.912 34.48 34.472 34.016C35.032 33.552 35.312 32.888 35.312 32.024C35.312 31.128 35.024 30.36 34.448 29.72C33.872 29.08 32.96 28.36 31.712 27.56C30.752 26.936 29.984 26.392 29.408 25.928C28.832 25.464 28.36 24.92 27.992 24.296C27.624 23.656 27.44 22.92 27.44 22.088C27.44 21.128 27.68 20.32 28.16 19.664C28.656 18.992 29.312 18.496 30.128 18.176C30.944 17.856 31.84 17.696 32.816 17.696ZM43.7116 16.4C44.3836 16.4 44.9116 16.568 45.2956 16.904C45.6956 17.224 45.8956 17.672 45.8956 18.248C45.8956 18.824 45.6956 19.28 45.2956 19.616C44.9116 19.936 44.3836 20.096 43.7116 20.096C43.0396 20.096 42.5036 19.936 42.1036 19.616C41.7196 19.28 41.5276 18.824 41.5276 18.248C41.5276 17.672 41.7196 17.224 42.1036 16.904C42.5036 16.568 43.0396 16.4 43.7116 16.4ZM45.5836 32.768C45.5836 33.424 45.6956 33.88 45.9196 34.136C46.1596 34.376 46.5596 34.496 47.1196 34.496V35C45.5196 34.936 44.4556 34.904 43.9276 34.904C43.4316 34.904 42.3196 34.936 40.5916 35V34.496C41.1676 34.496 41.5676 34.376 41.7916 34.136C42.0156 33.88 42.1276 33.424 42.1276 32.768V25.208C42.1276 24.472 42.0156 23.936 41.7916 23.6C41.5676 23.264 41.1676 23.096 40.5916 23.096V22.592C41.1036 22.64 41.5996 22.664 42.0796 22.664C43.5036 22.664 44.6716 22.552 45.5836 22.328V32.768ZM57.0899 22.256C58.3059 22.256 59.1859 22.568 59.7299 23.192C60.0019 23.496 60.1939 23.888 60.3059 24.368C60.4179 24.848 60.4739 25.496 60.4739 26.312V32.768C60.4739 33.424 60.5859 33.88 60.8099 34.136C61.0499 34.376 61.4499 34.496 62.0099 34.496V35C60.4099 34.936 59.3539 34.904 58.8419 34.904C58.3619 34.904 57.3219 34.936 55.7219 35V34.496C56.2019 34.496 56.5379 34.376 56.7299 34.136C56.9219 33.88 57.0179 33.424 57.0179 32.768V25.304C57.0179 24.648 56.9059 24.152 56.6819 23.816C56.4739 23.48 56.0899 23.312 55.5299 23.312C54.8739 23.312 54.3139 23.584 53.8499 24.128C53.3859 24.656 53.1539 25.312 53.1539 26.096V32.768C53.1539 33.424 53.2499 33.88 53.4419 34.136C53.6339 34.376 53.9699 34.496 54.4499 34.496V35C52.9779 34.936 51.9859 34.904 51.4739 34.904C50.9939 34.904 49.8899 34.936 48.1619 35V34.496C48.7379 34.496 49.1379 34.376 49.3619 34.136C49.5859 33.88 49.6979 33.424 49.6979 32.768V25.208C49.6979 24.472 49.5859 23.936 49.3619 23.6C49.1379 23.264 48.7379 23.096 48.1619 23.096V22.592C48.6739 22.64 49.1699 22.664 49.6499 22.664C51.0739 22.664 52.2419 22.552 53.1539 22.328V24.488C53.8739 23 55.1859 22.256 57.0899 22.256ZM67.7761 22.592H70.6081V23.072H67.7761V32.768C67.7761 33.248 67.8561 33.592 68.0161 33.8C68.1921 33.992 68.4641 34.088 68.8321 34.088C69.5201 34.088 70.0641 33.608 70.4641 32.648L70.8721 32.864C70.2641 34.512 69.1681 35.336 67.5841 35.336C66.5281 35.336 65.7281 35.064 65.1841 34.52C64.8481 34.184 64.6161 33.768 64.4881 33.272C64.3761 32.76 64.3201 32.064 64.3201 31.184V23.072H62.3041V22.592H64.3201V19.424C65.6481 19.424 66.8001 19.168 67.7761 18.656V22.592ZM74.5096 35.168C73.4856 35.168 72.7176 34.904 72.2056 34.376C71.7096 33.848 71.4616 33.152 71.4616 32.288C71.4616 31.568 71.6456 30.976 72.0136 30.512C72.3976 30.032 72.8536 29.664 73.3816 29.408C73.9256 29.152 74.6136 28.88 75.4456 28.592C76.3256 28.288 76.9656 28.016 77.3656 27.776C77.7816 27.52 77.9896 27.176 77.9896 26.744V24.872C77.9896 24.2 77.8296 23.68 77.5096 23.312C77.2056 22.928 76.7256 22.736 76.0696 22.736C75.3016 22.736 74.7176 22.928 74.3176 23.312C74.7656 23.472 75.1096 23.712 75.3496 24.032C75.6056 24.352 75.7336 24.728 75.7336 25.16C75.7336 25.704 75.5496 26.136 75.1816 26.456C74.8136 26.776 74.3656 26.936 73.8376 26.936C73.2776 26.936 72.8456 26.76 72.5416 26.408C72.2376 26.056 72.0856 25.616 72.0856 25.088C72.0856 24.64 72.1896 24.264 72.3976 23.96C72.6216 23.64 72.9576 23.344 73.4056 23.072C73.8376 22.816 74.3656 22.616 74.9896 22.472C75.6296 22.328 76.3256 22.256 77.0776 22.256C77.8616 22.256 78.5416 22.336 79.1176 22.496C79.6936 22.656 80.1736 22.928 80.5576 23.312C80.9096 23.664 81.1416 24.096 81.2536 24.608C81.3816 25.12 81.4456 25.816 81.4456 26.696V33.224C81.4456 33.608 81.4776 33.88 81.5416 34.04C81.6216 34.2 81.7656 34.28 81.9736 34.28C82.2136 34.28 82.5016 34.144 82.8376 33.872L83.0776 34.28C82.3576 34.872 81.4776 35.168 80.4376 35.168C79.5576 35.168 78.9416 34.992 78.5896 34.64C78.2376 34.288 78.0536 33.816 78.0376 33.224C77.2376 34.52 76.0616 35.168 74.5096 35.168ZM76.3576 33.632C76.9816 33.632 77.5256 33.304 77.9896 32.648V27.728C77.7976 28.048 77.3896 28.4 76.7656 28.784C76.1416 29.184 75.6696 29.584 75.3496 29.984C75.0296 30.384 74.8696 30.96 74.8696 31.712C74.8696 32.368 75.0056 32.856 75.2776 33.176C75.5496 33.48 75.9096 33.632 76.3576 33.632ZM94.7075 33.296C94.9635 33.664 95.1875 33.944 95.3795 34.136C95.5715 34.328 95.7955 34.448 96.0515 34.496V35C94.7715 34.936 93.9155 34.904 93.4835 34.904C93.0035 34.904 91.9635 34.936 90.3635 35V34.496C90.6035 34.496 90.7955 34.456 90.9395 34.376C91.0995 34.296 91.1795 34.176 91.1795 34.016C91.1795 33.92 91.1395 33.808 91.0595 33.68L88.5635 29.96L87.7235 31.016C87.1955 31.704 86.9315 32.344 86.9315 32.936C86.9315 33.384 87.0835 33.752 87.3875 34.04C87.7075 34.312 88.1315 34.472 88.6595 34.52V35C87.7315 34.952 86.5795 34.928 85.2035 34.928C84.5475 34.928 83.9875 34.952 83.5235 35V34.52C83.8915 34.392 84.2435 34.184 84.5795 33.896C84.9155 33.608 85.2915 33.2 85.7075 32.672L88.2755 29.528L84.7475 24.296C84.4435 23.864 84.2035 23.568 84.0275 23.408C83.8515 23.232 83.6435 23.128 83.4035 23.096V22.592C84.8115 22.656 85.7635 22.688 86.2595 22.688C86.6755 22.688 87.6195 22.656 89.0915 22.592V23.096C88.8515 23.096 88.6515 23.136 88.4915 23.216C88.3475 23.296 88.2755 23.416 88.2755 23.576C88.2755 23.704 88.3155 23.816 88.3955 23.912L90.6515 27.272L91.5635 26.072C92.1235 25.336 92.4035 24.72 92.4035 24.224C92.4035 23.888 92.2755 23.624 92.0195 23.432C91.7795 23.224 91.4195 23.104 90.9395 23.072V22.592C91.8675 22.64 92.7715 22.664 93.6515 22.664C94.3235 22.664 94.8915 22.64 95.3555 22.592V23.072C94.6835 23.296 93.9475 23.912 93.1475 24.92L90.9395 27.68L94.7075 33.296Z" fill="#7869D7"/>
</svg>
